<?xml version="1.0" encoding="utf-8"?>
<!-- Generator: Adobe Illustrator 20.1.0, SVG Export Plug-In . SVG Version: 6.00 Build 0)  -->
<svg version="1.1" id="Calque_1" xmlns="http://www.w3.org/2000/svg" xmlns:xlink="http://www.w3.org/1999/xlink" x="0px" y="0px"
	 viewBox="0 0 300 176.7" style="enable-background:new 0 0 300 176.7;" xml:space="preserve">
<style type="text/css">
	.st0{fill:#FFDE00;}
	.st1{fill:#D6D6D6;}
</style>
<g>
	
		<ellipse transform="matrix(0.9239 -0.3827 0.3827 0.9239 -26.6027 39.9414)" class="st0" cx="87.1" cy="86.8" rx="46.6" ry="46.6"/>
	<polygon class="st0" points="76.9,33.9 52.6,3.6 56.9,42.2 	"/>
	<polygon class="st0" points="97.6,140.6 121.9,170.9 117.6,132.2 	"/>
	<polygon class="st0" points="170.5,52.7 131.9,57 140.2,77 	"/>
	<polygon class="st0" points="3.2,122 41.8,117.7 33.5,97.7 	"/>
	<polygon class="st0" points="131.9,117.7 170.5,122 140.2,97.7 	"/>
	<polygon class="st0" points="41.8,57 3.2,52.7 33.5,77 	"/>
	<polygon class="st0" points="121.5,3.7 97.3,34 117.2,42.3 	"/>
	<polygon class="st0" points="52.2,171 76.5,140.7 56.5,132.4 	"/>
</g>
<path class="st1" d="M29.1,134.2c0-21.8,17.6-39.4,39.4-39.4c5,0,9.8,1,14.3,2.7c4.5-9.3,14-15.8,25.1-15.8c0.9,0,1.8,0.1,2.7,0.1
	c6.5-12.7,19.8-21.5,35.1-21.5c4.2,0,8.2,0.7,12,1.9c5.3-15.4,20-26.5,37.2-26.5c20,0,36.5,14.9,39,34.2c3.8-0.9,7.8-1.4,11.8-1.4
	c29,0,52.5,23.5,52.5,52.5s-23.5,52.5-52.5,52.5c0,0-0.1,0-0.1,0v0H68.5c0,0,0,0,0,0c0,0,0,0,0,0h-0.1v0
	C46.7,173.6,29.1,156,29.1,134.2z"/>
</svg>
