<?xml version="1.0" encoding="utf-8"?>
<!-- Generator: Adobe Illustrator 20.1.0, SVG Export Plug-In . SVG Version: 6.00 Build 0)  -->
<svg version="1.1" id="Calque_1" xmlns="http://www.w3.org/2000/svg" xmlns:xlink="http://www.w3.org/1999/xlink" x="0px" y="0px"
	 viewBox="0 0 300 207" style="enable-background:new 0 0 300 207;" xml:space="preserve">
<style type="text/css">
	.st0{fill:#FFE600;}
	.st1{fill:#636363;}
	.st2{fill:#9B9B9B;}
</style>
<polygon class="st0" points="247.8,118.1 225.7,138.2 240,135.9 225.4,157.3 251.1,129.3 240.4,131.1 255.3,121.2 "/>
<polygon class="st0" points="169.7,136.4 134.1,169 157.1,165.2 133.6,199.7 175,154.4 157.8,157.5 181.8,141.4 "/>
<polygon class="st0" points="90.4,136.4 54.8,169 77.8,165.2 54.3,199.7 95.7,154.4 78.5,157.5 102.5,141.4 "/>
<path class="st1" d="M264.9,124.6L264.9,124.6L264.9,124.6L264.9,124.6L264.9,124.6H108l0,0h-0.1c-25.7,0-46.5-20.8-46.5-46.5
	s20.8-46.5,46.5-46.5c3.5,0,7.1,0.4,10.4,1.2c2.2-17.1,16.8-30.3,34.5-30.3c15.2,0,28.2,9.8,32.9,23.5c3.4-1.1,6.9-1.7,10.6-1.7
	c13.5,0,25.3,7.8,31.1,19c0.8,0,1.6-0.1,2.4-0.1c9.8,0,18.2,5.8,22.2,14c4-1.5,8.2-2.4,12.7-2.4c19.3,0,34.9,15.6,34.9,34.9
	S284.1,124.7,264.9,124.6z"/>
<path class="st2" d="M1,115.8C1,98.2,15.2,84,32.8,84c4,0,7.9,0.8,11.5,2.2c3.6-7.5,11.3-12.7,20.2-12.7c0.7,0,1.5,0.1,2.2,0.1
	c5.2-10.2,16-17.3,28.3-17.3c3.4,0,6.6,0.6,9.7,1.5c4.3-12.4,16.1-21.4,30-21.4c16.1,0,29.4,12,31.4,27.6c3.1-0.7,6.3-1.1,9.5-1.1
	c23.4,0,42.3,18.9,42.3,42.3s-18.9,42.3-42.3,42.3h-0.1l0,0H32.8l0,0l0,0h-0.1l0,0C15.2,147.6,1,133.4,1,115.8z"/>
</svg>
