<?xml version="1.0" encoding="utf-8"?>
<!-- Generator: Adobe Illustrator 20.1.0, SVG Export Plug-In . SVG Version: 6.00 Build 0)  -->
<svg version="1.1" id="Calque_1" xmlns="http://www.w3.org/2000/svg" xmlns:xlink="http://www.w3.org/1999/xlink" x="0px" y="0px"
	 viewBox="0 0 300 300" style="enable-background:new 0 0 300 300;" xml:space="preserve">
<style type="text/css">
	.st0{fill:#FFDE00;}
</style>
<g>
	
		<ellipse transform="matrix(0.9239 -0.3827 0.3827 0.9239 -45.8225 68.7527)" class="st0" cx="149.9" cy="149.6" rx="82.9" ry="82.9"/>
	<polygon class="st0" points="131.7,55.4 88.5,1.4 96.2,70.1 	"/>
	<polygon class="st0" points="168.7,245.2 211.9,299.2 204.2,230.4 	"/>
	<polygon class="st0" points="298.4,88.9 229.7,96.5 244.4,132.1 	"/>
	<polygon class="st0" points="0.6,212.2 69.3,204.6 54.6,169 	"/>
	<polygon class="st0" points="229.7,204.6 298.4,212.2 244.4,169 	"/>
	<polygon class="st0" points="69.3,96.5 0.6,88.9 54.6,132.1 	"/>
	<polygon class="st0" points="211.2,1.6 168,55.6 203.5,70.4 	"/>
	<polygon class="st0" points="87.8,299.4 131,245.5 95.5,230.7 	"/>
</g>
</svg>
